<svg version="1.1" id="Layer_1" xmlns="http://www.w3.org/2000/svg" x="0" y="0" viewBox="0 0 595.3 841.9" style="enable-background:new 0 0 595.3 841.9" xml:space="preserve"><style>.st0{fill:none;stroke:#000;stroke-miterlimit:10}</style><path class="st0" d="M222.8 309.5c-2.4-3.2-3.2-6.7-1.9-8.4 1.8-2.3 7.4-1 10.3 1.9 3.7 3.6 3.7 10.4.9 14-4.7 6.1-19.1 4.9-25.2-2.8-6.6-8.3-1.1-20.9 3.7-27.1.9-1.2 7.5-9.2 18.7-10.3 10.3-1 17.6 4.6 21.5 7.5 12.7 9.5 15.9 24 16.8 29.9 2.2 15.1-3.5 26.8-6.5 32.7-10 19.5-27.2 27.9-31.8 29.9-21 9.4-40.3 4.6-51.4 1.9-7.8-1.9-26.7-7.6-43.9-24.3-15.8-15.3-21.9-31.7-25.2-41.1-11.8-33.1-5.9-62.3-2.8-77.5 4.2-20.7 11.2-35.5 14-41.1 12.6-25.1 28.5-40.2 36.4-47.6 7.5-7 20.2-18.7 40.2-28 7.7-3.6 14.6-6 19.6-7.5h76.6V49c-15.2 1-39.4 4.5-65.4 17.8-22.6 11.3-36.6 25.2-47.6 36.2-16.3 16.4-41.2 45.9-59.8 91.6"/><path class="st0" d="m137.8 280.5 38.3 269.1 104.6 3.7 22.5-22.4 25.2-10.4 43-103.6z"/><path class="st0" d="M274.2 485.1 137.8 280.5l136.4 204.6zM176.1 549.6l195.3-132.7M303.2 530.9l-29-45.8 29 45.8zM263 571.4v-18.7 18.7zM341 498.8l63.2 22.2 8.3-19.3-12.2-14.4-38.5-45.8"/><path class="st0" d="m339.8 498.1.3-.8.3-.8 24 10.5-6.9 21.4M263 571.4c5.3 1.1 34.9 9.2 62.1-9.9 16.3-11.4 28.4-23.6 32-32.4M293.9 111.6c8.4-.6 31.5-3.4 52.9-21 17.4-14.3 24.8-31.2 27.7-39.2v-2.6s-56.8.8-83.6 0c17.1.2 49 2.7 83.9 19.7 32.7 16 53.3 37.4 63.9 50.2"/><path class="st0" d="M292.9 71.3c10.1 10.5 28 26.4 54.6 37.5 39.9 16.6 75.7 12.6 91.3 10M485.4 138.3c.2-3 1-17.5-8.8-30.2C465.3 93.5 449.2 93 446.8 93"/><path class="st0" d="M446.1 137.6c.1-14.2.9-30.2 1.1-44.5H444c-9.3 1.4-17.2 7.5-20.3 16.1-3.6 9.9-.4 21.4 8.1 28.4H485.7c.3 9.2-1.5 16.6-3.5 22.1-14.8 40-70.2 47.5-74.3 48 6.1-1.4 29-7.3 44.8-29.4 11.4-15.9 13.3-32.1 13.7-39.2"/><path class="st0" d="M295.5 50.3c7.4 9.9 28.3 35.3 64.2 46 24.5 7.3 45.5 4.4 56.9 1.9 1.8 7.7 3.7 15.3 5.5 23M352.5 59.3l69.6 61.9M374.5 48.8c4.9 1.4 18.6 8.5 28.5 21.1 7.2 9.1 9.7 18.4 10.7 23.5M120.1 194.6 353.6 59.7M438.8 118.8h7.2v18.8h-7.2zM194.2 130.9c-.3 20.2-3.5 61.3-27.3 105-19.8 36.3-45.1 58.4-60.4 69.9"/><path class="st0" d="M160.6 143.1c2.2 4.9 4.6 10.6 6.9 17.1 4.7 13.2 9.2 29.3 11.9 48.1 4 28 2.4 51.8.2 68.4"/><path class="st0" d="M169.2 232.2c1.4-7.9 2.7-18.1 2.6-29.8-.1-14.6-2.2-26.9-4.3-35.8M101.9 276.7h121.7M160.6 143.1l-38.1 134.7M109.2 222.6l102-109.6M216.3 111.4c-.8-4-.4-14.6 2.8-24.3 2.6-7.7 12.8-21.1 15.4-23.9"/><ellipse class="st0" cx="224.9" cy="415" rx="109.2" ry="105.5"/><circle class="st0" cx="249.5" cy="449.1" r="41.3"/><ellipse class="st0" cx="264.1" cy="508" rx="47.5" ry="45.3"/><ellipse class="st0" cx="298.7" cy="485.8" rx="43.6" ry="45"/><ellipse class="st0" cx="282.2" cy="497.9" rx="42.4" ry="41.2"/><ellipse class="st0" cx="283.3" cy="494.4" rx="82" ry="79.4"/><circle class="st0" cx="282.2" cy="497.9" r="58.4"/><path class="st0" d="M127.8 366.7c-5.1 7.4-33.8 32.2-61.8 42.7-31.5 11.8-49.7 4-57.8 1.4 13.2 5 45.3 18.6 93.4 3.1 32.1-10.3 52.9-29 63.2-39.6M158.6 426.7c-7.4 8.7-22.5 24.4-43.6 33.9-35.1 15.9-56.3 12.4-67.6 9.7 16.8 5.7 51.2 15.9 103.3-1.8 26.4-9 48.6-24.8 60.6-35.2M169.9 506.1c-6.4 4.7-16.3 10.9-29.7 14.7-22.4 6.4-34.7 4.2-43.7 1.7 12.8 4.7 29.4 9.6 58.4 6.3 17.9-2.1 32.3-7.2 42.4-11.8M267.7 314.1c7.4-3.3 21.2-10.5 33-25.2 15.2-18.9 18.2-38.8 18.9-46.9-.5 11.3-2.6 28.4-10.5 47.6-7.1 17.2-16.2 29.7-23.2 37.9M307.8 379.8c7.8-3.3 20.3-9.9 31.8-22.6 17.4-19.2 21.6-40.6 22.8-49.4-.8 12.7-3.7 31.9-13.7 52.9-6.3 13.3-13.7 23.7-20.1 31.2M355.9 407.9c4.2-1.1 10.1-3.1 16.3-7.2 7.5-4.9 12.3-10.6 15.1-14.4-1.5 4.7-3.9 10.6-7.7 16.8-3.3 5.4-6.7 9.6-9.7 12.9M362.4 440.8l-14.2-5.9v-29.3zM362.4 442.1l7 64.2 105.2-82.9zM480.8 476.5l-81.8 7 81.8-7zM412.5 501.7l12.1-20.5-12.1 20.5zM393.3 436.9l5.7 46.5-5.7-46.5zM369.4 506.3h41.1M510.5 485.1c7.3 4.6 36.1 24.2 47.1 62.9 12.1 42.8-6.6 77.3-10.3 83.9"/><path class="st0" d="M550.2 626.3c20.7-32.5 21.7-73.3 2.5-104.8-23.6-38.5-66.2-44.4-71.8-45.1-2.9-4.7-7.2-13.2-8.7-24.6-1.7-12.7.8-23 2.6-28.4 4.3 10.5 10.7 23.3 20.2 36.8 8 11.3 16.2 20.4 23.5 27.3 6.9 3.8 44.3 25.4 56.8 71.8 10.1 37.5-2.2 68.3-6.3 77.4 6.3-13.2 31.3-69.6 10.9-138.4-21.1-71.2-75.8-105-87.9-112.1-2.7 7.5-5.4 17.4-6.7 29.4-1.2 11.8-.6 22 .4 29.8M204.4 553.3l-32.2 49.9c-4.2 4.6-8.9 10.5-13.3 17.9-6.4 10.7-9.9 20.7-11.9 28.4 27.3-17.1 54.7-34.2 82-51.3"/><path class="st0" d="m255.1 567.3-26.2 30.9-36.5-23.4"/><path class="st0" d="M261.1 552.4v66.9h-21.3l-35.4-67.7 54.3 33.8-30.6 11.6 30.6 20.5M246.1 610.9l12.6-25.5-12.6 25.5zM173.5 632.8l6.4-9.7c.4-.9 2.7-6.8-.4-13-2.3-4.5-6.1-6.4-7.4-7"/><path class="st0" d="m228.9 598.2-41 77.8-41-26.6"/><path class="st0" d="M176.6 629.2c12.8 4.1 22 14.9 23.7 27.5 2 15.4-8.1 26.3-9.5 27.7"/><path class="st0" d="M187.9 676c4.2 14.8 13.7 40.3 36.4 63.1 46.6 46.9 109.8 43.5 120.5 42.7-12 3.4-79.4 21.3-146.8-18.2-57.2-33.5-77.4-86.8-82.3-101.3 7 13.6 38 70.2 107.2 95.3 53.1 19.2 99.4 9.2 116.8 4.6-14.2 2-41.8 3.9-72.6-8.2-52.6-20.9-74.4-67.2-79.2-78zM167.6 662.4h-53.3"/><path class="st0" d="M146.9 651.2c.8 11.5 3 26.9 9.1 44.1 5.3 14.9 11.9 26.9 17.6 35.7"/></svg>